<svg width="252" height="72" viewBox="0 0 252 72" fill="none" xmlns="http://www.w3.org/2000/svg">
<path fill-rule="evenodd" clip-rule="evenodd" d="M27.0014 4C21.2653 4 15.9963 7.09382 13.1588 12.0647L4.12332 27.8934C1.3039 32.8326 1.29155 38.9053 4.09062 43.856L13.1492 59.8778C15.9779 64.8808 21.2646 68 27.0245 68H44.8247C50.5435 68 55.7994 64.9247 58.6433 59.9772L67.8527 43.9558C70.7276 38.9542 70.715 32.7836 67.8193 27.7939L58.6331 11.965L56.07 13.433L58.633 11.965C55.7806 7.04993 50.5427 4 44.8478 4H27.0014ZM19.3852 15.5726C20.9721 12.7926 23.8838 11.1111 27.0014 11.1111H44.8478C47.9431 11.1111 50.8372 12.7688 52.432 15.5168L61.6182 31.3458C63.2433 34.146 63.2505 37.6221 61.6369 40.4294L52.4275 56.4509C50.8372 59.2174 47.9329 60.8889 44.8247 60.8889H27.0245C23.8941 60.8889 20.9721 59.1936 19.39 56.3952L10.3314 40.3735C8.76017 37.5945 8.76723 34.1735 10.3497 31.4013L19.3852 15.5726ZM42.4053 21.0933C41.1067 19.6128 38.846 19.4586 37.3558 20.7487C35.8656 22.0388 35.7103 24.2847 37.0089 25.7651L45.9866 36L37.0089 46.2349C35.7103 47.7153 35.8656 49.9612 37.3558 51.2513C38.846 52.5414 41.1067 52.3871 42.4053 50.9067L52.4075 39.5039C54.169 37.4957 54.169 34.5043 52.4075 32.4961L42.4053 21.0933Z" fill="url(#paint0_linear_1045_155)"/>
<path d="M97.2419 48.1576C100.246 48.1576 102.835 46.993 105.053 44.6407C107.272 42.2884 108.381 39.4004 108.381 36C108.381 32.5996 107.272 29.7349 105.053 27.3826C102.835 25.0303 100.246 23.8425 97.2419 23.8425C96.3869 23.8425 95.578 23.9822 94.7923 24.2151C94.0066 24.448 93.3595 24.7275 92.8742 25.0303C92.3658 25.3331 91.9036 25.6824 91.4876 26.0551C91.0716 26.4277 90.7943 26.6839 90.6556 26.8236C90.517 26.9634 90.4245 27.0798 90.3783 27.173V24.3083H84V57.7066H90.3783V44.827L91.0947 45.6888C91.5569 46.2478 92.3658 46.7834 93.5213 47.3424C94.6767 47.9014 95.9016 48.1576 97.2419 48.1576ZM96.0633 29.5719C97.6348 29.5719 98.9752 30.1774 100.084 31.3885C101.194 32.5996 101.748 34.1368 101.748 36.0233C101.748 37.8865 101.194 39.447 100.084 40.6581C98.9752 41.8692 97.6348 42.4747 96.0633 42.4747C94.4919 42.4747 93.1515 41.8692 92.0422 40.6581C90.933 39.447 90.3783 37.8865 90.3783 36.0233C90.3783 34.1368 90.933 32.5996 92.0422 31.3885C93.1515 30.1774 94.4919 29.5719 96.0633 29.5719Z" fill="black"/>
<path d="M117.845 36.0233C117.845 34.2765 118.399 32.8092 119.532 31.5982C120.641 30.4103 121.981 29.8048 123.53 29.8048C125.055 29.8048 126.395 30.4103 127.528 31.5982C128.637 32.8092 129.215 34.2765 129.215 36.0233C129.215 37.7701 128.637 39.2374 127.528 40.4252C126.395 41.613 125.055 42.1952 123.53 42.1952C121.981 42.1952 120.641 41.613 119.532 40.4252C118.399 39.2374 117.845 37.7701 117.845 36.0233ZM135.824 36C135.824 32.7627 134.599 29.9213 132.15 27.4991C129.7 25.0769 126.835 23.8658 123.53 23.8658C120.202 23.8658 117.336 25.0769 114.887 27.4991C112.437 29.9213 111.212 32.7627 111.212 36C111.212 39.2607 112.437 42.1021 114.887 44.5243C117.336 46.9465 120.202 48.1576 123.53 48.1576C126.835 48.1576 129.7 46.9465 132.15 44.5243C134.599 42.1021 135.824 39.2607 135.824 36Z" fill="black"/>
<path d="M154.047 24.0754H153.099C151.828 24.0754 150.627 24.3782 149.471 24.9371C148.316 25.5194 147.576 25.9852 147.229 26.3345C146.906 26.6839 146.629 26.9634 146.444 27.173V24.3083H140.065V47.6918H146.444V36.4891C146.444 34.4862 146.952 32.949 147.923 31.8776C148.893 30.8063 150.234 30.2706 151.898 30.2706C152.845 30.2939 153.562 30.3871 154.024 30.5501L154.047 24.0754Z" fill="black"/>
<path d="M159.975 21.6998C159.975 22.6314 159.721 23.3767 159.212 23.9356C158.704 24.5179 158.08 24.7974 157.364 24.7974H155.237V30.5268H159.259V40.0525C159.259 45.4559 161.685 48.1576 166.584 48.1576C168.156 48.1809 169.589 47.948 170.86 47.4589V41.9623L170.582 42.0555C170.374 42.1487 170.074 42.2418 169.681 42.335C169.288 42.4281 168.895 42.4514 168.479 42.4514C167.647 42.4514 166.977 42.1952 166.446 41.6829C165.914 41.1705 165.66 40.5649 165.66 39.8196V30.5268H170.374V24.7974H165.66V17.4144H159.975V21.6998Z" fill="black"/>
<path d="M185.292 38.6318L191.463 47.6918H198.557L189.336 34.3464L198.072 24.3083H190.746L182.473 33.8573V14.2935H176.071V47.6918H182.473V41.9623L185.292 38.6318Z" fill="black"/>
<path d="M223.158 38.1427L223.389 35.5342C223.389 32.2037 222.28 29.4322 220.085 27.1963C217.866 24.9604 215.116 23.8425 211.811 23.8425C208.483 23.8425 205.641 25.0536 203.284 27.4292C200.903 29.8048 199.725 32.6695 199.725 36C199.725 39.3538 200.927 42.2185 203.33 44.5941C205.733 46.9698 208.622 48.1576 212.042 48.1576C213.244 48.1576 214.4 48.0178 215.532 47.7383C216.664 47.4589 217.589 47.1561 218.305 46.7834C218.998 46.4108 219.669 45.9916 220.316 45.5258C220.94 45.06 221.356 44.7339 221.54 44.5476L221.98 44.105L218.675 39.8196L218.005 40.5416C217.589 41.0307 216.849 41.5198 215.832 41.9856C214.816 42.4514 213.706 42.6843 212.505 42.6843C210.841 42.6843 209.454 42.2651 208.368 41.3801C207.259 40.4951 206.588 39.4237 206.357 38.1427H223.158ZM211.811 29.339C213.152 29.339 214.307 29.7582 215.232 30.5501C216.156 31.3653 216.757 32.39 217.011 33.6244H206.357C206.727 32.3667 207.397 31.3187 208.345 30.5268C209.292 29.7349 210.448 29.339 211.811 29.339Z" fill="black"/>
<path d="M233.107 49.1125C232.345 50.8825 231.004 51.7443 229.086 51.7443C228.139 51.7443 227.353 51.6045 226.729 51.2785V56.9846L227.191 57.1476C227.515 57.2874 228 57.4038 228.693 57.5203C229.364 57.66 230.057 57.7066 230.75 57.7066C234.633 57.7066 237.614 54.8419 239.74 49.1125L248.961 24.3083H242.351L236.897 39.8196L231.467 24.3083H224.834L233.824 47.4589L233.107 49.1125Z" fill="black"/>
<defs>
<linearGradient id="paint0_linear_1045_155" x1="-40.0526" y1="0.444436" x2="75.981" y2="-32.5776" gradientUnits="userSpaceOnUse">
<stop offset="0.171875" stop-color="#1495CC"/>
<stop offset="0.953125" stop-color="#FF0D15"/>
</linearGradient>
</defs>
</svg>
